<svg width="1200" height="720" viewBox="0 0 1200 720" fill="none" xmlns="http://www.w3.org/2000/svg">
  <rect width="1200" height="720" rx="28" fill="#0F141A"/>
  <rect x="24" y="24" width="1152" height="672" rx="22" fill="#181E26" stroke="#2D3642"/>
  <rect x="24" y="24" width="1152" height="44" rx="22" fill="#202730"/>
  <circle cx="54" cy="46" r="7" fill="#EF7D86"/>
  <circle cx="78" cy="46" r="7" fill="#D8B15F"/>
  <circle cx="102" cy="46" r="7" fill="#7EC986"/>
  <text x="600" y="52" text-anchor="middle" fill="#DCE6F2" font-family="Inter, Segoe UI, Arial" font-size="18" font-weight="700">Malayang Dark Theme</text>

  <rect x="24" y="68" width="220" height="628" fill="#181E26"/>
  <rect x="244" y="68" width="932" height="628" fill="#1C222B"/>
  <rect x="244" y="68" width="932" height="38" fill="#171C23"/>
  <rect x="268" y="76" width="172" height="24" rx="8" fill="#1C222B" stroke="#2D3642"/>
  <text x="285" y="93" fill="#DCE6F2" font-family="Inter, Segoe UI, Arial" font-size="13">app.ts</text>

  <text x="52" y="112" fill="#93A1B2" font-family="Inter, Segoe UI, Arial" font-size="13" font-weight="700">EXPLORER</text>
  <rect x="42" y="128" width="184" height="28" rx="8" fill="#202730"/>
  <text x="56" y="146" fill="#DCE6F2" font-family="Inter, Segoe UI, Arial" font-size="13">src</text>
  <text x="68" y="178" fill="#D2DCE8" font-family="Inter, Segoe UI, Arial" font-size="13">app.ts</text>
  <text x="68" y="206" fill="#93A1B2" font-family="Inter, Segoe UI, Arial" font-size="13">theme.ts</text>
  <text x="68" y="234" fill="#93A1B2" font-family="Inter, Segoe UI, Arial" font-size="13">README.md</text>

  <g font-family="JetBrains Mono, Fira Code, monospace" font-size="24">
    <text x="286" y="160" fill="#748396">// readable dark blue theme</text>

    <text x="286" y="206" fill="#67CBE7">interface</text>
    <text x="408" y="206" fill="#DCE6F2"> </text>
    <text x="422" y="206" fill="#B49CF0">Palette</text>
    <text x="522" y="206" fill="#8A97A8"> {</text>

    <text x="322" y="248" fill="#DCE6F2">name</text>
    <text x="380" y="248" fill="#8A97A8">:</text>
    <text x="398" y="248" fill="#9FD47E">string</text>
    <text x="484" y="248" fill="#8A97A8">;</text>

    <text x="322" y="290" fill="#DCE6F2">accent</text>
    <text x="408" y="290" fill="#8A97A8">:</text>
    <text x="426" y="290" fill="#9FD47E">string</text>
    <text x="512" y="290" fill="#8A97A8">;</text>

    <text x="286" y="332" fill="#8A97A8">}</text>

    <text x="286" y="388" fill="#67CBE7">const</text>
    <text x="354" y="388" fill="#DCE6F2"> </text>
    <text x="368" y="388" fill="#DCE6F2">theme</text>
    <text x="438" y="388" fill="#8A97A8">:</text>
    <text x="456" y="388" fill="#B49CF0">Palette</text>
    <text x="556" y="388" fill="#8A97A8"> = {</text>

    <text x="322" y="430" fill="#DCE6F2">name</text>
    <text x="380" y="430" fill="#8A97A8">:</text>
    <text x="398" y="430" fill="#9FD47E">"Malayang Dark"</text>
    <text x="610" y="430" fill="#8A97A8">,</text>

    <text x="322" y="472" fill="#DCE6F2">accent</text>
    <text x="408" y="472" fill="#8A97A8">:</text>
    <text x="426" y="472" fill="#F2A7BB">"#67cbe7"</text>
    <text x="566" y="472" fill="#8A97A8">,</text>

    <text x="286" y="514" fill="#8A97A8">}</text>

    <text x="286" y="570" fill="#67CBE7">export</text>
    <text x="370" y="570" fill="#67CBE7">default</text>
    <text x="468" y="570" fill="#DCE6F2"> theme</text>
  </g>

  <rect x="804" y="132" width="322" height="160" rx="16" fill="#202730" stroke="#2D3642"/>
  <text x="830" y="168" fill="#DCE6F2" font-family="Inter, Segoe UI, Arial" font-size="18" font-weight="700">Palette</text>
  <circle cx="838" cy="208" r="10" fill="#67CBE7"/><text x="860" y="214" fill="#DCE6F2" font-family="Inter, Segoe UI, Arial" font-size="15">Keywords / operators</text>
  <circle cx="838" cy="238" r="10" fill="#B49CF0"/><text x="860" y="244" fill="#DCE6F2" font-family="Inter, Segoe UI, Arial" font-size="15">Types / classes</text>
  <circle cx="838" cy="268" r="10" fill="#9FD47E"/><text x="860" y="274" fill="#DCE6F2" font-family="Inter, Segoe UI, Arial" font-size="15">Strings</text>

  <rect x="804" y="320" width="322" height="132" rx="16" fill="#202730" stroke="#2D3642"/>
  <text x="830" y="356" fill="#DCE6F2" font-family="Inter, Segoe UI, Arial" font-size="18" font-weight="700">Readable by design</text>
  <text x="830" y="388" fill="#93A1B2" font-family="Inter, Segoe UI, Arial" font-size="15">Soft contrast, calm accents,</text>
  <text x="830" y="412" fill="#93A1B2" font-family="Inter, Segoe UI, Arial" font-size="15">and consistent token colors</text>
  <text x="830" y="436" fill="#93A1B2" font-family="Inter, Segoe UI, Arial" font-size="15">across languages.</text>

  <rect x="24" y="654" width="1152" height="42" rx="0" fill="#181E26"/>
  <text x="46" y="680" fill="#DCE6F2" font-family="Inter, Segoe UI, Arial" font-size="14">Melayang • Dark</text>
  <text x="1082" y="680" text-anchor="end" fill="#67CBE7" font-family="Inter, Segoe UI, Arial" font-size="14">ndhaniff</text>
</svg>
