<svg width="1200" height="720" viewBox="0 0 1200 720" fill="none" xmlns="http://www.w3.org/2000/svg">
  <rect width="1200" height="720" rx="28" fill="#03060A"/>
  <rect x="24" y="24" width="1152" height="672" rx="22" fill="#080C11" stroke="#141C27"/>
  <rect x="24" y="24" width="1152" height="44" rx="22" fill="#0F141B"/>
  <circle cx="54" cy="46" r="7" fill="#F39098"/>
  <circle cx="78" cy="46" r="7" fill="#E4CD97"/>
  <circle cx="102" cy="46" r="7" fill="#AFDF8F"/>
  <text x="600" y="52" text-anchor="middle" fill="#E7F0F8" font-family="Inter, Segoe UI, Arial" font-size="18" font-weight="700">Malayang Eclipse Theme</text>

  <rect x="24" y="68" width="220" height="628" fill="#080C11"/>
  <rect x="244" y="68" width="932" height="628" fill="#0D1117"/>
  <rect x="244" y="68" width="932" height="38" fill="#070B10"/>
  <rect x="268" y="76" width="212" height="24" rx="8" fill="#0D1117" stroke="#141C27"/>
  <text x="285" y="93" fill="#E7F0F8" font-family="Inter, Segoe UI, Arial" font-size="13">eclipse-theme.ts</text>

  <text x="52" y="112" fill="#98A8BA" font-family="Inter, Segoe UI, Arial" font-size="13" font-weight="700">EXPLORER</text>
  <rect x="42" y="128" width="184" height="28" rx="8" fill="#0F141B"/>
  <text x="56" y="146" fill="#E7F0F8" font-family="Inter, Segoe UI, Arial" font-size="13">themes</text>
  <text x="68" y="178" fill="#E7F0F8" font-family="Inter, Segoe UI, Arial" font-size="13">eclipse-theme.ts</text>
  <text x="68" y="206" fill="#98A8BA" font-family="Inter, Segoe UI, Arial" font-size="13">palette.ts</text>
  <text x="68" y="234" fill="#98A8BA" font-family="Inter, Segoe UI, Arial" font-size="13">README.md</text>

  <g font-family="JetBrains Mono, Fira Code, monospace" font-size="24">
    <text x="286" y="160" fill="#8292A5">// deepest variant for ultra-dark setups</text>

    <text x="286" y="206" fill="#7DDAF2">const</text>
    <text x="354" y="206" fill="#E7F0F8"> glow </text>
    <text x="440" y="206" fill="#7DDAF2">=</text>
    <text x="466" y="206" fill="#0D1117"> </text>
    <text x="480" y="206" fill="#AFDF8F">"eclipse"</text>

    <text x="286" y="252" fill="#7DDAF2">type</text>
    <text x="354" y="252" fill="#E7F0F8"> Mode </text>
    <text x="430" y="252" fill="#7DDAF2">=</text>
    <text x="456" y="252" fill="#C6B3F8">"eclipse"</text>
    <text x="590" y="252" fill="#7DDAF2"> | </text>
    <text x="630" y="252" fill="#C6B3F8">"midnight"</text>

    <text x="286" y="308" fill="#7DDAF2">function</text>
    <text x="404" y="308" fill="#F5F9FD"> makePalette</text>
    <text x="570" y="308" fill="#97A8BD">(</text>
    <text x="584" y="308" fill="#E4CD97">mode</text>
    <text x="640" y="308" fill="#97A8BD">:</text>
    <text x="658" y="308" fill="#C6B3F8">Mode</text>
    <text x="728" y="308" fill="#97A8BD">) {</text>

    <text x="322" y="350" fill="#7DDAF2">return</text>
    <text x="406" y="350" fill="#97A8BD">{</text>

    <text x="358" y="392" fill="#E7F0F8">background</text>
    <text x="500" y="392" fill="#97A8BD">:</text>
    <text x="518" y="392" fill="#F7B7C8">"#0d1117"</text>
    <text x="658" y="392" fill="#97A8BD">,</text>

    <text x="358" y="434" fill="#E7F0F8">keyword</text>
    <text x="472" y="434" fill="#97A8BD">:</text>
    <text x="490" y="434" fill="#7DDAF2">"#7ddaf2"</text>
    <text x="630" y="434" fill="#97A8BD">,</text>

    <text x="358" y="476" fill="#E7F0F8">comment</text>
    <text x="486" y="476" fill="#97A8BD">:</text>
    <text x="504" y="476" fill="#8292A5">"#8292a5"</text>
    <text x="644" y="476" fill="#97A8BD">,</text>

    <text x="322" y="518" fill="#97A8BD">}</text>
    <text x="286" y="560" fill="#97A8BD">}</text>
  </g>

  <rect x="804" y="132" width="322" height="160" rx="16" fill="#0F141B" stroke="#141C27"/>
  <text x="830" y="168" fill="#E7F0F8" font-family="Inter, Segoe UI, Arial" font-size="18" font-weight="700">Palette</text>
  <circle cx="838" cy="208" r="10" fill="#7DDAF2"/><text x="860" y="214" fill="#E7F0F8" font-family="Inter, Segoe UI, Arial" font-size="15">Keywords / operators</text>
  <circle cx="838" cy="238" r="10" fill="#C6B3F8"/><text x="860" y="244" fill="#E7F0F8" font-family="Inter, Segoe UI, Arial" font-size="15">Types / classes</text>
  <circle cx="838" cy="268" r="10" fill="#AFDF8F"/><text x="860" y="274" fill="#E7F0F8" font-family="Inter, Segoe UI, Arial" font-size="15">Strings</text>

  <rect x="804" y="320" width="322" height="132" rx="16" fill="#0F141B" stroke="#141C27"/>
  <text x="830" y="356" fill="#E7F0F8" font-family="Inter, Segoe UI, Arial" font-size="18" font-weight="700">Eclipse feel</text>
  <text x="830" y="388" fill="#98A8BA" font-family="Inter, Segoe UI, Arial" font-size="15">Darker than Midnight with</text>
  <text x="830" y="412" fill="#98A8BA" font-family="Inter, Segoe UI, Arial" font-size="15">clean contrast and brighter</text>
  <text x="830" y="436" fill="#98A8BA" font-family="Inter, Segoe UI, Arial" font-size="15">syntax for very dark rooms.</text>

  <rect x="24" y="654" width="1152" height="42" rx="0" fill="#080C11"/>
  <text x="46" y="680" fill="#E7F0F8" font-family="Inter, Segoe UI, Arial" font-size="14">Melayang • Eclipse</text>
  <text x="1082" y="680" text-anchor="end" fill="#7DDAF2" font-family="Inter, Segoe UI, Arial" font-size="14">ndhaniff</text>
</svg>
