<svg width="1200" height="720" viewBox="0 0 1200 720" fill="none" xmlns="http://www.w3.org/2000/svg">
  <rect width="1200" height="720" rx="28" fill="#06090D"/>
  <rect x="24" y="24" width="1152" height="672" rx="22" fill="#0D1218" stroke="#1F2A36"/>
  <rect x="24" y="24" width="1152" height="44" rx="22" fill="#151B22"/>
  <circle cx="54" cy="46" r="7" fill="#F1868E"/>
  <circle cx="78" cy="46" r="7" fill="#DDB866"/>
  <circle cx="102" cy="46" r="7" fill="#7EC986"/>
  <text x="600" y="52" text-anchor="middle" fill="#E4EDF6" font-family="Inter, Segoe UI, Arial" font-size="18" font-weight="700">Malayang Midnight Theme</text>

  <rect x="24" y="68" width="220" height="628" fill="#0D1218"/>
  <rect x="244" y="68" width="932" height="628" fill="#11161D"/>
  <rect x="244" y="68" width="932" height="38" fill="#0B1016"/>
  <rect x="268" y="76" width="222" height="24" rx="8" fill="#11161D" stroke="#1F2A36"/>
  <text x="285" y="93" fill="#E4EDF6" font-family="Inter, Segoe UI, Arial" font-size="13">midnight-theme.ts</text>

  <text x="52" y="112" fill="#94A2B4" font-family="Inter, Segoe UI, Arial" font-size="13" font-weight="700">EXPLORER</text>
  <rect x="42" y="128" width="184" height="28" rx="8" fill="#151B22"/>
  <text x="56" y="146" fill="#E4EDF6" font-family="Inter, Segoe UI, Arial" font-size="13">themes</text>
  <text x="68" y="178" fill="#D9E5F0" font-family="Inter, Segoe UI, Arial" font-size="13">midnight-theme.ts</text>
  <text x="68" y="206" fill="#94A2B4" font-family="Inter, Segoe UI, Arial" font-size="13">palette.ts</text>
  <text x="68" y="234" fill="#94A2B4" font-family="Inter, Segoe UI, Arial" font-size="13">README.md</text>

  <g font-family="JetBrains Mono, Fira Code, monospace" font-size="24">
    <text x="286" y="160" fill="#7A8898">// extra dark, same Melayang identity</text>

    <text x="286" y="206" fill="#72D1EB">export</text>
    <text x="370" y="206" fill="#72D1EB">function</text>
    <text x="488" y="206" fill="#F2F7FC"> makeTheme</text>
    <text x="642" y="206" fill="#90A0B4">(</text>
    <text x="656" y="206" fill="#DFC78F">mode</text>
    <text x="712" y="206" fill="#90A0B4">:</text>
    <text x="730" y="206" fill="#BEA9F5">"midnight"</text>
    <text x="850" y="206" fill="#90A0B4">) {</text>

    <text x="322" y="248" fill="#72D1EB">return</text>
    <text x="406" y="248" fill="#90A0B4">{</text>

    <text x="358" y="290" fill="#E4EDF6">background</text>
    <text x="500" y="290" fill="#90A0B4">:</text>
    <text x="518" y="290" fill="#F5AFC1">"#11161d"</text>
    <text x="658" y="290" fill="#90A0B4">,</text>

    <text x="358" y="332" fill="#E4EDF6">keyword</text>
    <text x="472" y="332" fill="#90A0B4">:</text>
    <text x="490" y="332" fill="#72D1EB">"#72d1eb"</text>
    <text x="630" y="332" fill="#90A0B4">,</text>

    <text x="358" y="374" fill="#E4EDF6">string</text>
    <text x="458" y="374" fill="#90A0B4">:</text>
    <text x="476" y="374" fill="#A7DA85">"#a7da85"</text>
    <text x="616" y="374" fill="#90A0B4">,</text>

    <text x="358" y="416" fill="#E4EDF6">constant</text>
    <text x="486" y="416" fill="#90A0B4">:</text>
    <text x="504" y="416" fill="#F5AFC1">"#f5afc1"</text>
    <text x="644" y="416" fill="#90A0B4">,</text>

    <text x="322" y="458" fill="#90A0B4">}</text>
    <text x="286" y="500" fill="#90A0B4">}</text>

    <text x="286" y="568" fill="#7A8898">// lower-light setup without harsh contrast</text>
  </g>

  <rect x="804" y="132" width="322" height="160" rx="16" fill="#151B22" stroke="#1F2A36"/>
  <text x="830" y="168" fill="#E4EDF6" font-family="Inter, Segoe UI, Arial" font-size="18" font-weight="700">Palette</text>
  <circle cx="838" cy="208" r="10" fill="#72D1EB"/><text x="860" y="214" fill="#E4EDF6" font-family="Inter, Segoe UI, Arial" font-size="15">Keywords / operators</text>
  <circle cx="838" cy="238" r="10" fill="#BEA9F5"/><text x="860" y="244" fill="#E4EDF6" font-family="Inter, Segoe UI, Arial" font-size="15">Types / classes</text>
  <circle cx="838" cy="268" r="10" fill="#A7DA85"/><text x="860" y="274" fill="#E4EDF6" font-family="Inter, Segoe UI, Arial" font-size="15">Strings</text>

  <rect x="804" y="320" width="322" height="132" rx="16" fill="#151B22" stroke="#1F2A36"/>
  <text x="830" y="356" fill="#E4EDF6" font-family="Inter, Segoe UI, Arial" font-size="18" font-weight="700">Midnight feel</text>
  <text x="830" y="388" fill="#94A2B4" font-family="Inter, Segoe UI, Arial" font-size="15">Much darker background,</text>
  <text x="830" y="412" fill="#94A2B4" font-family="Inter, Segoe UI, Arial" font-size="15">still readable and gentle</text>
  <text x="830" y="436" fill="#94A2B4" font-family="Inter, Segoe UI, Arial" font-size="15">for night sessions.</text>

  <rect x="24" y="654" width="1152" height="42" rx="0" fill="#0D1218"/>
  <text x="46" y="680" fill="#E4EDF6" font-family="Inter, Segoe UI, Arial" font-size="14">Melayang • Midnight</text>
  <text x="1082" y="680" text-anchor="end" fill="#72D1EB" font-family="Inter, Segoe UI, Arial" font-size="14">ndhaniff</text>
</svg>
